<mxfile host="app.diagrams.net" agent="Mozilla/5.0 (Windows NT 10.0; Win64; x64) AppleWebKit/537.36 (KHTML, like Gecko) Chrome/131.0.0.0 Safari/537.36" version="24.8.6">
  <diagram name="Page-1" id="JSNyJHVLyB_HizDcm5V6">
    <mxGraphModel dx="1050" dy="596" grid="1" gridSize="10" guides="1" tooltips="1" connect="1" arrows="1" fold="1" page="1" pageScale="1" pageWidth="850" pageHeight="1100" math="0" shadow="0">
      <root>
        <mxCell id="0" />
        <mxCell id="1" parent="0" />
        <mxCell id="_LfZSI_112ESRH-ljRPX-5" value="4.get userB,userC" style="edgeStyle=orthogonalEdgeStyle;rounded=0;orthogonalLoop=1;jettySize=auto;html=1;entryX=0.25;entryY=0;entryDx=0;entryDy=0;exitX=0.25;exitY=1;exitDx=0;exitDy=0;align=right;" edge="1" parent="1" source="_LfZSI_112ESRH-ljRPX-1" target="_LfZSI_112ESRH-ljRPX-2">
          <mxGeometry relative="1" as="geometry" />
        </mxCell>
        <mxCell id="_LfZSI_112ESRH-ljRPX-1" value="User Mapping Service&lt;div&gt;User A | polling server 10024&lt;/div&gt;&lt;div&gt;User B | polling server 90018&lt;/div&gt;&lt;div&gt;User C | polling server 80063&lt;/div&gt;" style="rounded=1;whiteSpace=wrap;html=1;" vertex="1" parent="1">
          <mxGeometry x="305" y="90" width="185" height="90" as="geometry" />
        </mxCell>
        <mxCell id="_LfZSI_112ESRH-ljRPX-6" value="90018,80063" style="edgeStyle=orthogonalEdgeStyle;rounded=0;orthogonalLoop=1;jettySize=auto;html=1;exitX=0.75;exitY=0;exitDx=0;exitDy=0;align=left;" edge="1" parent="1">
          <mxGeometry relative="1" as="geometry">
            <mxPoint x="394" y="281" as="sourcePoint" />
            <mxPoint x="389" y="181" as="targetPoint" />
          </mxGeometry>
        </mxCell>
        <mxCell id="_LfZSI_112ESRH-ljRPX-7" value="5.Forward" style="edgeStyle=orthogonalEdgeStyle;rounded=0;orthogonalLoop=1;jettySize=auto;html=1;entryX=0;entryY=0.25;entryDx=0;entryDy=0;exitX=1;exitY=0;exitDx=0;exitDy=0;" edge="1" parent="1" source="_LfZSI_112ESRH-ljRPX-2" target="_LfZSI_112ESRH-ljRPX-4">
          <mxGeometry relative="1" as="geometry">
            <Array as="points">
              <mxPoint x="420" y="280" />
              <mxPoint x="420" y="240" />
              <mxPoint x="640" y="240" />
            </Array>
          </mxGeometry>
        </mxCell>
        <mxCell id="_LfZSI_112ESRH-ljRPX-17" value="5.Forward" style="edgeStyle=orthogonalEdgeStyle;rounded=0;orthogonalLoop=1;jettySize=auto;html=1;" edge="1" parent="1" source="_LfZSI_112ESRH-ljRPX-2" target="_LfZSI_112ESRH-ljRPX-3">
          <mxGeometry relative="1" as="geometry" />
        </mxCell>
        <mxCell id="_LfZSI_112ESRH-ljRPX-2" value="polling server 10024" style="rounded=1;whiteSpace=wrap;html=1;" vertex="1" parent="1">
          <mxGeometry x="305" y="280" width="120" height="60" as="geometry" />
        </mxCell>
        <mxCell id="_LfZSI_112ESRH-ljRPX-19" value="6.push" style="edgeStyle=orthogonalEdgeStyle;rounded=0;orthogonalLoop=1;jettySize=auto;html=1;" edge="1" parent="1" source="_LfZSI_112ESRH-ljRPX-3" target="_LfZSI_112ESRH-ljRPX-18">
          <mxGeometry relative="1" as="geometry" />
        </mxCell>
        <mxCell id="_LfZSI_112ESRH-ljRPX-3" value="polling server 90018" style="rounded=1;whiteSpace=wrap;html=1;" vertex="1" parent="1">
          <mxGeometry x="540" y="290" width="120" height="60" as="geometry" />
        </mxCell>
        <mxCell id="_LfZSI_112ESRH-ljRPX-22" value="6.push" style="edgeStyle=orthogonalEdgeStyle;rounded=0;orthogonalLoop=1;jettySize=auto;html=1;exitX=0.5;exitY=1;exitDx=0;exitDy=0;entryX=0.5;entryY=0;entryDx=0;entryDy=0;" edge="1" parent="1" source="_LfZSI_112ESRH-ljRPX-4" target="_LfZSI_112ESRH-ljRPX-20">
          <mxGeometry relative="1" as="geometry" />
        </mxCell>
        <mxCell id="_LfZSI_112ESRH-ljRPX-4" value="poling server 80063" style="rounded=1;whiteSpace=wrap;html=1;" vertex="1" parent="1">
          <mxGeometry x="740" y="260" width="120" height="60" as="geometry" />
        </mxCell>
        <mxCell id="_LfZSI_112ESRH-ljRPX-8" value="" style="shape=cylinder3;whiteSpace=wrap;html=1;boundedLbl=1;backgroundOutline=1;size=15;" vertex="1" parent="1">
          <mxGeometry x="80" y="260" width="60" height="80" as="geometry" />
        </mxCell>
        <mxCell id="_LfZSI_112ESRH-ljRPX-9" value="get group members" style="edgeStyle=orthogonalEdgeStyle;rounded=0;orthogonalLoop=1;jettySize=auto;html=1;entryX=1;entryY=0;entryDx=0;entryDy=52.5;entryPerimeter=0;exitX=0;exitY=0.5;exitDx=0;exitDy=0;" edge="1" parent="1" source="_LfZSI_112ESRH-ljRPX-2" target="_LfZSI_112ESRH-ljRPX-8">
          <mxGeometry relative="1" as="geometry">
            <mxPoint x="300" y="290" as="sourcePoint" />
          </mxGeometry>
        </mxCell>
        <mxCell id="_LfZSI_112ESRH-ljRPX-11" value="2.write" style="endArrow=classic;html=1;rounded=0;exitX=0;exitY=0.25;exitDx=0;exitDy=0;entryX=1;entryY=0.5;entryDx=0;entryDy=0;entryPerimeter=0;" edge="1" parent="1" source="_LfZSI_112ESRH-ljRPX-2" target="_LfZSI_112ESRH-ljRPX-8">
          <mxGeometry width="50" height="50" relative="1" as="geometry">
            <mxPoint x="440" y="330" as="sourcePoint" />
            <mxPoint x="490" y="280" as="targetPoint" />
          </mxGeometry>
        </mxCell>
        <mxCell id="_LfZSI_112ESRH-ljRPX-12" value="3.ACK" style="endArrow=classic;html=1;rounded=0;exitX=0.75;exitY=1;exitDx=0;exitDy=0;" edge="1" parent="1" source="_LfZSI_112ESRH-ljRPX-2">
          <mxGeometry width="50" height="50" relative="1" as="geometry">
            <mxPoint x="440" y="330" as="sourcePoint" />
            <mxPoint x="395" y="430" as="targetPoint" />
          </mxGeometry>
        </mxCell>
        <mxCell id="_LfZSI_112ESRH-ljRPX-13" value="1.send" style="endArrow=classic;html=1;rounded=0;entryX=0.25;entryY=1;entryDx=0;entryDy=0;" edge="1" parent="1" target="_LfZSI_112ESRH-ljRPX-2">
          <mxGeometry width="50" height="50" relative="1" as="geometry">
            <mxPoint x="335" y="430" as="sourcePoint" />
            <mxPoint x="490" y="280" as="targetPoint" />
          </mxGeometry>
        </mxCell>
        <mxCell id="_LfZSI_112ESRH-ljRPX-15" value="&lt;div&gt;&lt;br&gt;&lt;/div&gt;&lt;div&gt;&lt;br&gt;&lt;/div&gt;&lt;div&gt;&lt;br&gt;&lt;/div&gt;&lt;div&gt;&lt;br&gt;&lt;/div&gt;&lt;div&gt;&lt;br&gt;&lt;/div&gt;&lt;div&gt;&lt;br&gt;&lt;/div&gt;user A" style="shape=actor;whiteSpace=wrap;html=1;" vertex="1" parent="1">
          <mxGeometry x="340" y="440" width="40" height="60" as="geometry" />
        </mxCell>
        <mxCell id="_LfZSI_112ESRH-ljRPX-18" value="&lt;div&gt;&lt;br&gt;&lt;/div&gt;&lt;div&gt;&lt;br&gt;&lt;/div&gt;&lt;div&gt;&lt;br&gt;&lt;/div&gt;&lt;div&gt;&lt;br&gt;&lt;/div&gt;&lt;div&gt;&lt;br&gt;&lt;/div&gt;&lt;div&gt;&lt;br&gt;&lt;/div&gt;user B" style="shape=actor;whiteSpace=wrap;html=1;" vertex="1" parent="1">
          <mxGeometry x="580" y="440" width="40" height="60" as="geometry" />
        </mxCell>
        <mxCell id="_LfZSI_112ESRH-ljRPX-20" value="&lt;div&gt;&lt;br&gt;&lt;/div&gt;&lt;div&gt;&lt;br&gt;&lt;/div&gt;&lt;div&gt;&lt;br&gt;&lt;/div&gt;&lt;div&gt;&lt;br&gt;&lt;/div&gt;&lt;div&gt;&lt;br&gt;&lt;/div&gt;&lt;div&gt;&lt;br&gt;&lt;/div&gt;user C" style="shape=actor;whiteSpace=wrap;html=1;" vertex="1" parent="1">
          <mxGeometry x="780" y="440" width="40" height="60" as="geometry" />
        </mxCell>
        <mxCell id="_LfZSI_112ESRH-ljRPX-64" value="Group ID" style="swimlane;fontStyle=0;childLayout=stackLayout;horizontal=1;startSize=30;horizontalStack=0;resizeParent=1;resizeParentMax=0;resizeLast=0;collapsible=1;marginBottom=0;whiteSpace=wrap;html=1;" vertex="1" parent="1">
          <mxGeometry x="30" y="510" width="140" height="120" as="geometry" />
        </mxCell>
        <mxCell id="_LfZSI_112ESRH-ljRPX-66" value="&#xa;&lt;span style=&quot;color: rgb(0, 0, 0); font-family: Helvetica; font-size: 12px; font-style: normal; font-variant-ligatures: normal; font-variant-caps: normal; font-weight: 400; letter-spacing: normal; orphans: 2; text-align: left; text-indent: 0px; text-transform: none; widows: 2; word-spacing: 0px; -webkit-text-stroke-width: 0px; white-space: normal; background-color: rgb(251, 251, 251); text-decoration-thickness: initial; text-decoration-style: initial; text-decoration-color: initial; display: inline !important; float: none;&quot;&gt;CSCI104&lt;/span&gt;&#xa;&#xa;" style="text;strokeColor=none;fillColor=none;align=left;verticalAlign=middle;spacingLeft=4;spacingRight=4;overflow=hidden;points=[[0,0.5],[1,0.5]];portConstraint=eastwest;rotatable=0;whiteSpace=wrap;html=1;" vertex="1" parent="_LfZSI_112ESRH-ljRPX-64">
          <mxGeometry y="30" width="140" height="30" as="geometry" />
        </mxCell>
        <mxCell id="_LfZSI_112ESRH-ljRPX-65" value="CSCI104" style="text;strokeColor=none;fillColor=none;align=left;verticalAlign=middle;spacingLeft=4;spacingRight=4;overflow=hidden;points=[[0,0.5],[1,0.5]];portConstraint=eastwest;rotatable=0;whiteSpace=wrap;html=1;" vertex="1" parent="_LfZSI_112ESRH-ljRPX-64">
          <mxGeometry y="60" width="140" height="30" as="geometry" />
        </mxCell>
        <mxCell id="_LfZSI_112ESRH-ljRPX-67" value="CSCI10&lt;span style=&quot;background-color: initial;&quot;&gt;4&lt;/span&gt;&lt;div&gt;&lt;span style=&quot;background-color: initial;&quot;&gt;&lt;br&gt;&lt;/span&gt;&lt;/div&gt;" style="text;strokeColor=none;fillColor=none;align=left;verticalAlign=middle;spacingLeft=4;spacingRight=4;overflow=hidden;points=[[0,0.5],[1,0.5]];portConstraint=eastwest;rotatable=0;whiteSpace=wrap;html=1;" vertex="1" parent="_LfZSI_112ESRH-ljRPX-64">
          <mxGeometry y="90" width="140" height="30" as="geometry" />
        </mxCell>
        <mxCell id="_LfZSI_112ESRH-ljRPX-68" value="user ID" style="swimlane;fontStyle=0;childLayout=stackLayout;horizontal=1;startSize=30;horizontalStack=0;resizeParent=1;resizeParentMax=0;resizeLast=0;collapsible=1;marginBottom=0;whiteSpace=wrap;html=1;" vertex="1" parent="1">
          <mxGeometry x="170" y="510" width="140" height="120" as="geometry" />
        </mxCell>
        <mxCell id="_LfZSI_112ESRH-ljRPX-69" value="A" style="text;strokeColor=none;fillColor=none;align=left;verticalAlign=middle;spacingLeft=4;spacingRight=4;overflow=hidden;points=[[0,0.5],[1,0.5]];portConstraint=eastwest;rotatable=0;whiteSpace=wrap;html=1;" vertex="1" parent="_LfZSI_112ESRH-ljRPX-68">
          <mxGeometry y="30" width="140" height="30" as="geometry" />
        </mxCell>
        <mxCell id="_LfZSI_112ESRH-ljRPX-70" value="B" style="text;strokeColor=none;fillColor=none;align=left;verticalAlign=middle;spacingLeft=4;spacingRight=4;overflow=hidden;points=[[0,0.5],[1,0.5]];portConstraint=eastwest;rotatable=0;whiteSpace=wrap;html=1;" vertex="1" parent="_LfZSI_112ESRH-ljRPX-68">
          <mxGeometry y="60" width="140" height="30" as="geometry" />
        </mxCell>
        <mxCell id="_LfZSI_112ESRH-ljRPX-71" value="C" style="text;strokeColor=none;fillColor=none;align=left;verticalAlign=middle;spacingLeft=4;spacingRight=4;overflow=hidden;points=[[0,0.5],[1,0.5]];portConstraint=eastwest;rotatable=0;whiteSpace=wrap;html=1;" vertex="1" parent="_LfZSI_112ESRH-ljRPX-68">
          <mxGeometry y="90" width="140" height="30" as="geometry" />
        </mxCell>
      </root>
    </mxGraphModel>
  </diagram>
</mxfile>
